<?xml version="1.0" encoding="UTF-8"?>
<svg id="Calque_1" data-name="Calque 1" xmlns="http://www.w3.org/2000/svg" xmlns:xlink="http://www.w3.org/1999/xlink" viewBox="0 0 24 24">
  <defs>
    <style>
      .cls-1 {
        fill: url(#Nouvelle_nuance_de_dégradé_1);
      }
    </style>
    <linearGradient id="Nouvelle_nuance_de_dégradé_1" data-name="Nouvelle nuance de dégradé 1" x1="2.9" y1="11.98" x2="22.33" y2="11.98" gradientUnits="userSpaceOnUse">
      <stop offset="0" stop-color="#ffda78"/>
      <stop offset="1" stop-color="#dd2b7b"/>
    </linearGradient>
  </defs>
  <path class="cls-1" d="M11.58,12.61c.2.27.21.63.06.93-.19.41-.25.94-.17,1.34.49,2.26,3.88,2.07,4.1-.24.14-1.45-1.05-2.44-2.36-2.26-.32.05-.64-.1-.82-.36L4.63,1.28c-.31-.56.5-1.18.96-.73.15.15.19.32.31.49,1.64,2.15,4.51,3.71,6.98,4.68,1.53.61,3.11,1.07,4.71,1.45.63.15,1.27.26,1.89.41.32.08.57.33.65.65.42,1.66,1.72,6.88,2.16,8.63.09.36-.05.72-.35.94l-7.81,5.6c-.29.21-.68.22-.99.03l-7.59-4.67c-.3-.18-.46-.52-.41-.86.16-1.32.26-2.65.3-3.98.09-3.08-.09-6.87-1.41-9.71-.3-.63-.67-1.01-1.01-1.57-.41-.68.19-1.25.79-.77l7.76,10.74Z"/>
  <g>
    <path d="M12,12.15c.08.13.14.03.17.03-.17-.2-.18-.01-.17-.03Z"/>
    <polygon points="10.29 10.2 10.35 10.21 10.04 9.96 10.29 10.2"/>
    <path d="M8.88,8.24c-.01.29.54.69.74,1.08v.08s.24.07.24.07c-.32-.41-.8-.91-.98-1.23Z"/>
    <path d="M8.44,6.97c0,.11-.21-.19.16.26,0-.03-.01-.04-.02-.05-.03-.04-.07-.1-.14-.2Z"/>
    <path d="M8.58,7.17c.15.2-.05-.17,0,0h0Z"/>
    <path d="M7.86,6.24l.25.24c0-.08-.17-.33-.09-.26-.23-.26-.22-.18-.16.02Z"/>
    <path d="M7.57,6.06l.12.13s-.03-.08-.12-.13Z"/>
    <path d="M7.95,6.45l-.26-.27c0,.06-.04.09.12.13-.06,0,.02.04.15.14Z"/>
    <path d="M8.05,6.63c.08.18.2.39-.05.15.4.51.44.36.05-.15Z"/>
    <path d="M8.66,8.24l.1.23.18.14c-.09-.07-.24-.42-.28-.38Z"/>
    <path d="M6.71,4.49s-.02.15-.04.2l.18.18c-.05-.12-.18-.33-.14-.37Z"/>
    <path d="M6.67,4.69l-.27-.26c.19.27.25.3.27.26Z"/>
    <polygon points="7.37 6.12 7.84 6.54 7.3 6.03 7.37 6.12"/>
    <polygon points="5.88 3.34 6.08 3.46 5.75 3.23 5.88 3.34"/>
    <path d="M5.32,2.59c.15.08-.02-.24.11-.14-.16-.2-.34-.34-.5-.47.15.15.27.34.39.6Z"/>
    <path d="M4.67,1.77c.08.07.16.14.26.22-.08-.08-.16-.15-.26-.22Z"/>
    <path d="M6.04,3.9s.02-.12-.08-.3v.18s.05.08.08.12Z"/>
    <path d="M5.96,3.79h0c-.09-.14-.15-.23-.18-.26.02.03.08.11.18.26Z"/>
    <path d="M6.07,3.93l-.02-.03s0,.03.02.03Z"/>
    <path d="M6.88,5.28c-.18-.14-.49-.47-.31-.06.15.08.05-.15.31.06Z"/>
    <path d="M6.06,4.16l.21.33s.01-.1.1-.03l-.31-.3Z"/>
    <polygon points="5.92 4.02 6.06 4.16 5.98 4.04 5.92 4.02"/>
    <path d="M4.99,2.37c-.14-.11-.25-.26-.38-.43.11.19.24.39.37.57.05,0,.15.05,0-.14Z"/>
    <path d="M5.45,3.07l-.03-.03s.01.04.03.03Z"/>
    <polygon points="2.4 2.68 2.4 2.62 2.38 2.62 2.4 2.68"/>
    <path d="M4.99,2.56c.08.15.16.22.25.27-.08-.1-.17-.2-.25-.32-.02,0-.03,0,0,.04Z"/>
    <path d="M4.02,1.17c.08.05.14.11.22.18l.11.09.02.04s.04.08.06.12c-.01-.04-.03-.09-.04-.13h0s-.13-.13-.13-.13c-.09-.09-.18-.17-.23-.17Z"/>
    <path d="M5.42,2.98l.02.02c-.01-.06-.02-.05-.02-.02Z"/>
    <path d="M5.42,2.98c-.06-.06-.12-.1-.18-.14.07.08.13.15.19.21,0-.02,0-.05,0-.06Z"/>
    <path d="M3.35,2.96c-.07.04-.5-.28-.44-.71-.04-.18-.11-.26-.24-.21-.13.05-.28.3-.28.59.04-.03.09.08.37.41,0-.04-.04-.11-.07-.2-.04-.1-.08-.23-.09-.34-.02-.23.03-.36.09-.15.09.31.18.41.19.48.02.08.01.13.07.25-.02-.24.53.44.61.24l-.31-.33s.15.08.1-.03Z"/>
    <path d="M2.79,1.31c.1-.07.21-.13.32-.16-.39.09-.72.32-.9.83,0,.58.15.6.17.63-.15-.39-.07-1.09.51-1.38-.03.02-.07.05-.1.08Z"/>
    <path d="M4.35,1.62s-.07-.03-.11-.05l-.1-.1c-.23-.09-.52-.15-.32.04.08.04.14.09.19.12h.01s.05.06.05.06c.18.21.19.11.36.28-.47-.6.18.14-.09-.34.1.11.19.22.26.32l-.19-.35v.02s0,0,0,0h0s0,.05,0,.01c0,0-.01-.01-.01-.01-.02,0-.03,0-.05,0-.11-.19,0-.04.05,0,0,0,.01,0,.02,0h0s-.1-.12-.1-.12l-.08-.1-.03-.02c-.25-.18-.65-.36-1.1-.23.31-.07.7,0,1.07.27l.05.04.06.08s.04.05.07.08Z"/>
    <path d="M6.14,5.02s0-.03,0-.03c-.04-.03-.06-.04,0,.03Z"/>
    <path d="M6.01,4.73s.11.05.2.2c.06.15-.04.03-.07.06.09.07.28.26.13-.04l-.04-.03c-.15-.27-.27-.67-.23-.63-.03.13-.04.23,0,.45Z"/>
    <path d="M5.15,3.17l-.41-.48.11.32.04-.05c.19.3.2.2.26.21Z"/>
    <path d="M2.39,2.81c-.06-.02-.11-.06-.16-.09.13.2.28.32.38.39-.07-.08-.14-.15-.22-.3Z"/>
    <polygon points="2.92 3.6 2.82 3.63 2.99 3.77 2.92 3.6"/>
    <path d="M19.39,8.18s-.05,0-.08,0c.03,0,.06,0,.08,0Z"/>
    <path d="M19.69,8.93l.06.02c-.04-.05-.07-.07-.06-.02Z"/>
    <path d="M8.75,21.46c.18.22.36.5.39.39v-.14c-.19-.08-.3-.17-.39-.25Z"/>
    <path d="M20.61,18.73l-.08.02c-.03.07-.06.13-.09.19.05-.06.11-.14.17-.21Z"/>
    <path d="M20.51,18.25l.33-.15c-.08.03-.19.07-.33.15Z"/>
    <path d="M12.35,6.27l-.25.02c.32.13.2.02.25-.02Z"/>
    <path d="M4.86,11.3c-.03.23-.05.41-.05.57.06-.28.14-.5.05-.57Z"/>
    <path d="M20.52,7.71c-.11-.14-.18-.18-.19-.16.13.12.19.21.19.16Z"/>
    <path d="M4.81,12.54s.02-.08.02-.12c-.02-.17-.03-.34-.03-.54-.04.2-.07.44,0,.66Z"/>
    <path d="M15.46,12.55s.03.04.05.07c.02,0,0-.03-.05-.07Z"/>
    <path d="M11.92,14.72s.05.14.07.23c0-.04-.04-.12-.07-.23Z"/>
    <path d="M4.11,6.41c-.05-.16-.02-.02,0,0h0Z"/>
    <path d="M4.28,5.5s.05.05.07.05c-.03,0-.05-.02-.07-.05Z"/>
    <path d="M5.44,14.27v.02c.02-.05.02-.04,0-.02Z"/>
    <path d="M4.09,6.15c0,.06.01.14.02.21,0-.04,0-.1-.02-.21Z"/>
    <path d="M4.05,6.2c-.01-.06-.02-.1-.03-.14-.02-.01-.03,0,.03.14Z"/>
    <path d="M4.17,6.63c-.03-.09-.05-.18-.06-.26,0,.03,0,.05,0,.04.01.05.03.11.07.22Z"/>
    <path d="M6.01,2.62s0,.02.01.04c.14.12.09.06-.01-.04Z"/>
    <polygon points="13.2 22.87 13.18 22.87 13.2 22.89 13.2 22.87"/>
    <path d="M13.57,22.97c-.14.12-.19.06-.37-.09v.37c.17-.05.3-.16.37-.29Z"/>
    <path d="M16.37,7.52l.41.21c-.56.02-.93-.14-.56.1.15-.3,1.7.39,1.83.06l.27.13c-.08-.02-.1,0-.18-.02.52.28.47-.15,1.17.05.14.06.15.15.08.14.08,0,.16.04.23.11.03.07-.04.08-.06.02.05.03.12.39.21.65h-.01c.08.1.23.35.3.48,0,.22-.06-.1-.09-.03l.2.44c-.04.21-.22-.15-.28-.47-.22.51.18.36.22,1.34l-.15-.43c-.12.33.04.65.04,1.17.03-.13.05-1.06.25-.58.01.15.05.34.18.59-.12.03-.02.29.07.62l-.16.02c.13.35.21.3.33.49.08.4-.02.51-.09.63.14.64.08-.49.3.26.07.55.23.9.48,1.51.04.38-.11-.04-.12.1l.21.3c.02.08-.03.06-.05.06.12.27.16-.02.31.41.16.05.05.63.16,1.08.01.07.03.13.07.2-.06.06-.09-.05-.16-.04.01.37-.02.25-.41.77l-.49.23c.39-.13.06.28-.22.63.15-.03.27-.06.35-.09l-.52.48c-.08.03-.06-.06,0-.18-.03.04-.06.07-.08.11-.24.1-.19-.05-.09-.23.09-.02.17-.04.26-.07.08-.18.15-.36.07-.42-.03.04-.09.11-.16.17.02-.05.03-.08,0-.08-.03,0-.07.07-.14.17l-.23-.05v.08s-.8.44-.8.44c-.43.53-.74,1.07-1.54,1.74.13-.26-.08-.21-.16-.34.33-.03.61-.53,1.07-.81-.24.15-.23.05-.19,0l-.69.68c-.06-.12-.22.04-.46.15.3.09-.49.55-.76.84-.07-.05-.04-.18.36-.44-.54.15-.38.64-.9.81.09-.07.15-.1.16-.16-.18.22-.75.56-.67.41l.09-.07c-.32.21-.8.56-1.2.88-.18.15-.4.34-.47.42-.08.09-.17.15-.18.2,0-.03.02-.27.02-.32-.06.15-.23.29-.46.32-.23.02-.51-.03-.76-.04.2-.09.03-.71.63-.46-.14-.12-.32-.26-.69-.41.09.09.13.39-.03.31-.29-.42-.22-.26-.63-.72.14.13-.19.27-.44.1.06-.01.13-.25.24-.22l-.78-.15c.18.05.15-.19.05-.34.04.09-.54-.34-.73-.42l.23.22c-.69-.47-.91-.1-1.61-.54.12,0,.4-.17.06-.43-.24.02-1.09.14-1.78-.15l-.08-.14-.53-.22c.41,0,1.49.13,2.04.26-.23-.22-.02-.13-.43-.37-.1-.15.28.03.4.1l-.9-.61c-.05.17-.8-.29-.84-.15l1.1.47c-.05.17-.83.05-1.48-.38-.13-.16.28-.18.3-.23-.12,0-.68-.29-.72-.36l.33.1c-.14-.12-.3-.17-.43-.21-.11,0-.27-.09-.22-.28,0-.04.05-.13.09-.15.05-.11.08-.21.03-.23-.21.27-.81.25-.93.05.02-.06.25-.91.36-1.1.17-.28.32.48.47.24-.04-.02-.09-.18-.1-.25.05-.18.14.09.15-.32-.16-.08.08-.83-.13-.21-.02-.4.07-.42.1-.89-.12.14-.34-.44-.36-.84.04.03.1-.06.13-.1.07-.81.14-1.25.14-2.02.04-.07.08-.44.16-.28-.03-.11-.09-.21-.1-.45.13-.46.04.53.2.17-.1-.03-.15-.61-.23-.94-.15.11,0,.78.07,1.11-.21,0-.44-.57-.58-1.35-.09-.62.12-.28.08-.39-.07-1.18-.45-.96-.44-1.94.07-.4.26-.06.34-.16.13.5.03.79.07,1.14v-.43c.08.16.15.49.13.69.11-.34-.22-2-.35-2.91-.08-.15-.2-.41-.22-.26l.09.27c-.04.28-.28-.49-.24-.12-.17-.35-.4-.72-.53-1.24l.11-.15s.04.36.13.49c-.13-.19-.09-.85-.38-1l.05.38c-.11-.15-.25-.34-.38-.51-.13-.16-.26-.32-.37-.52-.02.25.08.08.08.43.03-.16.17.05.27.3.11.25.21.48.22.23-.06.39.14.57.1,1.05.04-.03.04-.18.14.2.02.01.05.05.07.07,0,.01,0,.02,0,.03v-.02s.01.02,0,0c0-.1,0-.17.02-.21.17.15.33.76.43.96.03.24-.08-.08-.1.05l.16.29c-.1.06-.06.65-.23.12l.09.49c-.01.3.03.7.1.94,0,.23.19.58.08.38l.14.78h-.03c.05.78.28,1.6.09,2.5.03.26.06.54.02.98l-.1.08c.04.34-.15,1.01-.06,1.16-.29.35-.18,1.63-.27,2.22l.12.03c-.02.2-.03.4-.03.62,0,.12,0,.24,0,.37,0,.19.03.39.1.59l.09-.08c.11.26.29.57.61.79.3.22.6.47.96.68-.06.01-.21-.09-.3-.18.58.66,1.61.77,2.16,1.33.18.06.29.15.39.24-.02,0-.03-.02-.04-.02.02.01.04.03.07.04.06.06.13.13.19.19-.05-.06-.11-.12-.16-.17.13.07.32.18.52.27l.02.15s.03.01.04.02c.16.15.18.04.13-.1.1.04.2.07.28.09.05.26.52.24.61.54.18,0,.97.51,1.18.39,0,.03.04.07-.06.01.19.15.39.3.6.36v.18s.57.1.57.1c.23.25.31.36-.02.3.19.06.32.11.42.15.13.06.23.1.33.12.18.03.4.09.78-.12v.11c.14-.04.33-.2.42-.3.1-.1.2-.19.28-.19.54-.15,2.13-1.49,3.32-2.14-.38-.08.59-.26.5-.47.1.01.28-.07.14.11.52-.46.9-.51,1.18-.95.1.01-.06.17.02.16.04-.04.14-.18.22-.18.08,0-.05.11-.12.19.56-.42.5-.63.42-.82.34-.13.48-.25.61-.5.14-.02.35-.08,0,.19.22-.15,1.25-.77,1.23-.97.12-.03.32-.35.32-.44.15-.36.12-.58.08-.8-.03-.13-.07-.27-.14-.52v.15c-.23-.16-.14-.43-.27-.84h.02c-.11-1-.17-.4-.26-1.39l-.1.08c-.27-.03-.06-.89-.3-1.42l-.02.22c-.16-.28.13-.93.08-1.25,0-.07.06.1.1.18-.05-.83-.18-.07-.36-.65.05-.13.24.09.16-.32.02-.22-.56-1.09-.54-1.68-.03.14-.07.27-.18,0-.06-.21-.08-.51-.11-.8-.02-.15-.03-.27-.08-.43-.05-.2-.16-.35-.29-.44-.03-.08-.04-.11-.03-.12-.16-.18-.57-.4-.88-.4-.26-.02-.5-.04-.61,0-.21-.46-2.07-.25-1.96-.63l-.98-.25.04-.03c-.61-.2-.86-.19-1.1-.17-.13-.07-.02-.07,0-.09-.87-.37-.96-.39-1.77-.49l-.03-.15c-.23-.01-1.19-.69-2.06-.98.01,0,.04-.02.12,0-1.02-.33-1.95-1.51-2.5-1.36-.21-.1-.41-.21-.61-.32.68.56-.23.07.02.36-.31-.19-.62-.68-.28-.42l.04.06c.26-.08-.79-.77-.64-.89-.42-.43-.83-.83-1.08-1.39-.12-.19-.37-.39-.66-.43-.28-.05-.54.03-.75.16-.21.13-.38.32-.48.58-.1.26-.07.59.06.83v.02s.03.03.03.03c.29.43.58.85.87,1.26l.04-.26.33.48c.05.15,0,.25-.23-.09.04.24.48.51.52.5.41.7-.36-.13-.22.07l.21.27-.03-.07c.22.18.3.15.58.56.15.28,0,.2.07.3-.01,0,0,.04.11.16l.42.6-.05-.32c.25.22.4.56.33.19.09.55,1.52,2.26,1.64,2.56.35.31.61.67.93,1.13-.06-.13.03-.29.29.11-.37.05.4.8.43,1.25-.07-.37.83,1.08.7.51.21.34-.09.09.03.38.25.26.48.58.7.91.09.13.25.43.52.61.26.18.59.27.92.23.24-.02.44,0,.66.05.03-.04-.11-.14.11-.15.14.13.26.26.34.41.13.08.31-.1.41.26,0-.06,0-.15.09-.06.47.8.3,2.02-.55,2.47-.41.23-.96.3-1.41.12-.45-.17-.79-.54-.83-.98.03.24-.07.12-.12-.07.02.13-.1.03-.15.07-.06-.28,0-.53.09-.79-.07-.08-.03-.31.05-.49.14-.27.16-.66.06-.71.02.14.02.28,0,.41-.04-.29-.17-.09-.34.05-.18.12-.37.32-.47.26.03.28-.11.58-.14.99-.02.41.1.89.51,1.16.09.18-.17-.09-.15.03.23.12.4.33.83.62h-.06c.64.33,1.17.37,1.7.33.52-.07,1.14-.21,1.71-.89-.06.01-.11.02-.17.03.22-.28.3-.33.39-.47-.01-.23-.07.02-.23.22-.13.22-.33.39-.27.19.24-.08.61-.65.65-1.25.08-.59-.1-1.16-.05-1.36-.25-.51-.03.19-.31-.29,0-.06,0-.11-.02-.16l-.16-.05c-.22-.28-.32-.46-.29-.52.07.06.22.15.29.23-.27-.48-1.2-.72-1.36-.74.18.05.35.13.51.21-.43-.17-.95-.24-1.42-.18-.1.02-.21,0-.29-.07-.05-.04-.06-.05-.12-.13l-.21-.28c-.28-.37-.56-.72-.85-1.03v.11c-.6-.67-.37-.62-.99-1.4l.03.02c-.16-.13-.34-.33-.49-.55.2.16-.17-.46.08-.23-.66-.73-.35-.34-.9-.74v-.18c-.21-.13-.26-.12-.56-.51.3.28-.07-.34.28-.03-.44-.96-1.07-1.13-1.11-1.69-.49-.24.41.81.21.63.06.23-.39-.21-.56-.49-.19-.27-.06-.65-.56-1.32.05.07.07.06.11.13-.13-.29-.43-.44-.57-.82-.25-.08-.28-.41-.48-.34l.49.59c-.3-.32-.72-.52-1.05-1.16.06.02.23.16.34.26-.08-.2-.27-.3-.35-.51.2-.07.58.73.97,1.02-.06-.23-.63-.63-.32-.57-.42-.11-.45-.69-.95-1.02l.12-.04c-.07-.06-.22-.18-.32-.31l.3.15c-.15-.12-.24-.26-.33-.42l.04.06c-.1.06-.11.03-.05.04.05,0,.16.1.12.06-.29-.12-.04-.05-.22-.05-.05-.03,0-.12.05-.13.05-.02.1,0,.13.05.03.09,0-.04.02-.04,0,0,0,.02-.1.12-.08.06-.02.02.08.24-.08-.12-.11-.23-.09-.24l.05-.05s0,0,.02,0c0,.01.02.09.09.27.1.21.16.3.18.39.59.69,0-.18.31.07.09.32.33.29.63.53l-.08.09c.67.75.36,0,.96.67-.13-.04-.27-.07-.4-.12.12.1.26.18.39.27l-.16.04c.46.25.57.36.95.68-.04-.14.18-.13.54.1.21.22-.2,0,.33.33-.16,0-.34-.02-.5-.26-.04.02-.16-.01-.2,0,.22.25.67.46.86.58-.07-.05-.16-.11-.19-.15.28.11.57.21.86.31.1.11-.01.09-.13.06.16.08.3.09.54.21-.11.05-.14.15-.5.01l.81.3c.03.07.34.3.23.28.4.26,1.13.32,1.68.63.04,0,.1,0,.23.04.54.24.99.53,1.69.62l.32.29c.53.12-.44-.37.44-.16.63.13.19.21.39.32.33,0,.91-.02,1.44.26-.2-.02-.34-.08-.51-.11ZM20.23,10.86c-.06-.12-.19-.34-.15-.45.17.11.13.23.15.45ZM19.69,19.1c.05-.09.18-.16.34-.22-.09.08-.2.15-.34.22ZM4.58,8.19h0c0,.29,0,.19,0,0ZM4.53,7.62c-.03-.05-.04-.05-.06-.02.04.03.07.16.08.31.03-.05.03-.12-.03-.29ZM6.44,4.61l-.04-.11c.18.19.11.15.04.11Z"/>
    <path d="M20.52,18.31s.06,0,.08.02c.03-.05.02-.07-.08-.02Z"/>
    <path d="M12.39,6.27h-.02s-.02,0-.03,0h.05Z"/>
    <path d="M5.74,16.66c-.03.12-.05.19-.08.23.03,0,.06-.04.08-.23Z"/>
    <path d="M3.5,4.82c.06.1.12.21.16.31-.06-.16-.07-.22-.08-.31-.02.02-.03.1-.08,0Z"/>
    <path d="M3.21,1.73s.11-.03.16-.05l-.02-.05c-.28.03-.36.22-.15.1Z"/>
    <path d="M3.74,4.35c.08-.07-.05-.26-.2-.45l.02.04c-.16.02.02.2.17.42Z"/>
    <path d="M3.51,3.85c-.05-.06-.09-.13-.13-.19-.06,0,.05.08.13.19Z"/>
    <path d="M4.32,6.92c0-.12-.14-.04-.12-.12-.16-.1.33.75.12.12Z"/>
    <polygon points="3.94 4.01 3.88 4.15 4.03 4.24 3.94 4.01"/>
    <path d="M4.6,5.99l-.09-.41s-.05-.03-.07-.09c.07.25.14.52.17.51Z"/>
    <path d="M4.43,5.48c-.04-.13-.09-.25-.13-.31.03.07.08.2.13.31Z"/>
    <path d="M4.22,4.52l.03.13c.04.09.07.19.1.28-.04-.14-.08-.27-.13-.41Z"/>
    <path d="M5.29,10.45l.06.46s.07-.08.04-.25c-.04-.11-.06-.28-.1-.2Z"/>
    <path d="M5.51,9.02c-.01.13-.04.14-.07.21h.16s-.08-.21-.08-.21Z"/>
    <path d="M5.67,10.37s.16.67.12.08c-.04-.05-.11-.51-.12-.08Z"/>
    <polygon points="5.26 17.34 5.27 17.22 5.01 17.21 5.26 17.34"/>
    <path d="M9.79,20.57c-.43-.34-.19.07-.57-.26-.14-.02.31.26.17.24.31.12.44.24.4.02Z"/>
    <path d="M9.38,20.55s-.1-.03-.16-.06c.09.04.13.05.16.06Z"/>
    <path d="M12.2,13.79c.09-.16.16-.34.2-.54-.04.13-.09.24-.16.34,0,.06-.02.13-.04.19Z"/>
    <path d="M12.11,12.76c.04-.05.08-.11.11-.18-.09-.09-.19-.17-.29-.23.08.09.19.3.18.4Z"/>
    <path d="M20.15,11.88l.04.02c.03-.06.01-.14-.02-.31l-.02.29Z"/>
    <polygon points="19.07 8.27 19.15 8.29 19.03 8.11 19.07 8.27"/>
    <path d="M15.08,7.48c.16.05.36.08.52.13-.36-.08-.51-.32-.52-.13Z"/>
  </g>
</svg>