<?xml version="1.0" encoding="UTF-8"?>
<svg id="Calque_1" data-name="Calque 1" xmlns="http://www.w3.org/2000/svg" viewBox="0 0 24 24">
  <defs>
    <style>
      .cls-1 {
        fill: #1d1d1b;
      }
    </style>
  </defs>
  <path d="M11.75,12.6c.2.27.21.62.07.92-.19.41-.25.93-.16,1.32.49,2.24,3.84,2.06,4.05-.22.13-1.43-1.05-2.42-2.33-2.24-.31.04-.63-.1-.81-.36L4.87,1.38c-.31-.56.49-1.17.94-.72.15.14.18.32.31.48,1.62,2.13,4.46,3.68,6.9,4.65,1.51.6,3.07,1.07,4.65,1.45.62.15,1.25.26,1.87.41.32.08.57.32.65.64.42,1.65,1.72,6.8,2.16,8.54.09.35-.05.71-.34.92l-7.68,5.51c-.29.21-.67.22-.98.03l-7.5-4.64c-.29-.18-.45-.52-.41-.86.15-1.31.25-2.62.28-3.93.08-3.04-.11-6.79-1.42-9.6-.29-.63-.67-1-1-1.56-.4-.67.18-1.24.77-.76l7.68,10.64Z"/>
  <g>
    <path class="cls-1" d="M12.18,12.14c.08.13.14.02.16.03-.17-.2-.18-.01-.16-.03Z"/>
    <polygon class="cls-1" points="10.49 10.21 10.55 10.22 10.24 9.98 10.49 10.21"/>
    <path class="cls-1" d="M9.09,8.27c-.01.29.53.69.73,1.07v.08s.24.07.24.07c-.32-.41-.79-.9-.97-1.22Z"/>
    <path class="cls-1" d="M8.65,7.01c-.01.1-.21-.19.16.25,0-.03-.01-.04-.02-.05-.03-.04-.07-.1-.14-.2Z"/>
    <path class="cls-1" d="M8.79,7.21c.15.2-.05-.17,0,0h0Z"/>
    <path class="cls-1" d="M8.08,6.29l.24.23c0-.08-.17-.32-.08-.25-.23-.26-.22-.18-.16.02Z"/>
    <path class="cls-1" d="M7.79,6.11l.12.12s-.03-.07-.12-.12Z"/>
    <path class="cls-1" d="M8.17,6.5l-.26-.26c0,.06-.04.09.11.12-.06,0,.02.04.14.14Z"/>
    <path class="cls-1" d="M8.27,6.68c.08.17.2.38-.05.15.39.5.44.35.05-.15Z"/>
    <path class="cls-1" d="M8.87,8.28l.1.23.17.14c-.09-.07-.24-.42-.28-.37Z"/>
    <path class="cls-1" d="M6.95,4.56s-.02.15-.04.2l.18.17c-.05-.12-.17-.32-.14-.37Z"/>
    <path class="cls-1" d="M6.9,4.76l-.27-.26c.19.27.25.3.27.26Z"/>
    <polygon class="cls-1" points="7.6 6.18 8.06 6.59 7.53 6.09 7.6 6.18"/>
    <polygon class="cls-1" points="6.13 3.42 6.32 3.54 6 3.32 6.13 3.42"/>
    <path class="cls-1" d="M5.57,2.68c.15.08-.02-.24.11-.14-.16-.2-.33-.33-.49-.46.15.15.27.33.39.6Z"/>
    <path class="cls-1" d="M4.93,1.87c.07.07.16.14.26.22-.08-.08-.16-.15-.26-.22Z"/>
    <path class="cls-1" d="M6.29,3.98s.02-.12-.08-.3v.18s.05.08.08.12Z"/>
    <path class="cls-1" d="M6.2,3.87h0c-.09-.13-.15-.22-.18-.26.02.03.08.11.18.26Z"/>
    <path class="cls-1" d="M6.31,4.01l-.02-.03s0,.03.02.03Z"/>
    <path class="cls-1" d="M7.11,5.34c-.17-.14-.49-.47-.31-.06.15.08.05-.15.31.06Z"/>
    <path class="cls-1" d="M6.3,4.24l.21.33s.01-.1.1-.03l-.31-.3Z"/>
    <polygon class="cls-1" points="6.17 4.1 6.3 4.24 6.23 4.11 6.17 4.1"/>
    <path class="cls-1" d="M5.24,2.47c-.14-.11-.25-.26-.37-.42.11.19.24.39.37.56.05,0,.15.05,0-.14Z"/>
    <path class="cls-1" d="M5.7,3.15l-.03-.03s.01.04.03.03Z"/>
    <polygon class="cls-1" points="2.65 2.72 2.65 2.67 2.63 2.66 2.65 2.72"/>
    <path class="cls-1" d="M5.24,2.65c.08.15.16.21.24.27-.08-.1-.17-.2-.25-.31-.02,0-.03,0,0,.04Z"/>
    <path class="cls-1" d="M4.31,1.27c.06.05.11.1.18.16l.11.1.02.03s.04.09.07.14c-.01-.04-.03-.1-.05-.15h0s-.12-.13-.12-.13c-.08-.08-.16-.14-.19-.14Z"/>
    <path class="cls-1" d="M5.67,3.06l.02.02c-.01-.06-.02-.05-.02-.02Z"/>
    <path class="cls-1" d="M5.67,3.06c-.06-.06-.12-.1-.18-.14.07.08.13.15.19.2,0-.02,0-.04,0-.06Z"/>
    <path class="cls-1" d="M3.6,3.01c-.07.04-.5-.28-.42-.71-.04-.18-.09-.27-.23-.22-.13.04-.29.29-.29.58.05-.03.08.08.36.42,0-.06-.13-.3-.15-.54-.02-.23.05-.36.09-.15.09.31.17.41.18.49.02.08.01.13.06.25-.02-.24.53.44.61.24l-.31-.33s.15.08.1-.03Z"/>
    <path class="cls-1" d="M3.09,1.36c.1-.07.21-.11.33-.14-.39.07-.74.28-.94.8-.01.58.13.61.15.64-.06-.21-.08-.46,0-.73.08-.26.28-.52.56-.64l-.1.07Z"/>
    <path class="cls-1" d="M4.61,1.72s-.09-.03-.13-.06l-.09-.1c-.22-.09-.46-.14-.28.05.06.04.11.07.16.1h.02s.04.06.04.06c.19.23.2.12.38.3-.46-.59.17.14-.09-.34.1.11.18.21.26.31-.07-.12-.13-.23-.19-.34v.02s0,0,0,0h0s0,.05,0,.01c0,0-.01-.01-.01-.01-.02,0-.03,0-.05,0-.11-.19,0-.04.05,0,0,0,.01,0,.02,0h0s-.11-.13-.11-.13l-.08-.1-.03-.02c-.24-.17-.61-.34-1.04-.25.3-.05.66.02,1.01.29l.05.03.06.08s.05.06.08.1Z"/>
    <path class="cls-1" d="M6.38,5.09s0-.03,0-.03c-.04-.03-.06-.04,0,.03Z"/>
    <path class="cls-1" d="M6.25,4.81s.11.05.2.2c.06.14-.04.03-.07.06.09.07.28.26.13-.04l-.04-.03c-.15-.27-.27-.66-.22-.63-.03.13-.04.23,0,.45Z"/>
    <path class="cls-1" d="M5.4,3.26l-.41-.48.11.31.04-.05c.19.3.2.2.26.21Z"/>
    <path class="cls-1" d="M2.64,2.86c-.05-.03-.1-.06-.16-.1.12.2.28.33.38.4-.06-.07-.14-.16-.22-.3Z"/>
    <polygon class="cls-1" points="3.16 3.65 3.06 3.68 3.24 3.82 3.16 3.65"/>
    <path class="cls-1" d="M19.43,8.25s-.05,0-.07,0c.03,0,.05,0,.07,0Z"/>
    <path class="cls-1" d="M19.74,8.97l.06.02c-.04-.05-.07-.07-.06-.02Z"/>
    <path class="cls-1" d="M8.96,21.32c.18.22.36.5.39.39v-.14c-.18-.08-.3-.17-.39-.25Z"/>
    <path class="cls-1" d="M20.7,18.67l-.08.02c-.03.07-.06.13-.09.19.05-.06.11-.13.17-.21Z"/>
    <path class="cls-1" d="M20.59,18.19l.33-.15c-.08.03-.18.07-.33.15Z"/>
    <path class="cls-1" d="M12.47,6.34l-.25.02c.32.13.2.02.25-.02Z"/>
    <path class="cls-1" d="M5.11,11.26c-.03.23-.05.41-.05.57.06-.27.14-.5.05-.57Z"/>
    <path class="cls-1" d="M20.56,7.76c-.11-.14-.18-.17-.19-.15.13.12.19.2.19.15Z"/>
    <path class="cls-1" d="M5.07,12.48s.02-.08.02-.12c-.02-.17-.04-.33-.03-.54-.04.2-.07.43,0,.66Z"/>
    <path class="cls-1" d="M15.58,12.54s.03.04.04.07c.02,0,0-.03-.04-.07Z"/>
    <path class="cls-1" d="M12.11,14.68s.05.14.07.23c0-.04-.04-.12-.07-.23Z"/>
    <path class="cls-1" d="M4.35,6.42c-.05-.16-.02-.02,0,0h0Z"/>
    <path class="cls-1" d="M4.52,5.52s.05.05.07.05c-.03,0-.05-.02-.07-.05Z"/>
    <path class="cls-1" d="M5.71,14.19h0s.02-.03,0,0Z"/>
    <path class="cls-1" d="M4.33,6.17c0,.06.01.14.02.21,0-.04,0-.1-.02-.21Z"/>
    <path class="cls-1" d="M4.29,6.22c-.01-.06-.02-.1-.03-.14-.03-.01-.03,0,.03.14Z"/>
    <path class="cls-1" d="M4.41,6.64c-.03-.09-.04-.18-.06-.26,0,.03,0,.05,0,.04.01.05.03.11.07.22Z"/>
    <path class="cls-1" d="M6.24,2.71s0,.02.01.04c.14.11.09.06-.01-.04Z"/>
    <polygon class="cls-1" points="13.37 22.73 13.35 22.72 13.37 22.74 13.37 22.73"/>
    <path class="cls-1" d="M13.75,22.84c-.13.12-.2.04-.38-.1v.37c.18-.05.3-.15.38-.27Z"/>
    <path class="cls-1" d="M16.44,7.58l.4.21c-.56.02-.92-.14-.55.1.15-.3,1.68.39,1.82.06l.26.13c-.08-.02-.1,0-.18-.02.51.28.46-.15,1.15.05.15.06.15.14.08.14.08,0,.16.04.23.1.03.07-.03.08-.06.02.05.03.12.37.2.63h-.01c.08.1.23.35.3.47,0,.22-.06-.1-.09-.03l.2.44c-.04.21-.22-.15-.28-.47-.22.51.18.36.22,1.33l-.15-.42c-.12.33.04.64.04,1.16.03-.13.05-1.05.25-.58.01.15.05.33.18.58-.12.03-.02.29.07.61l-.16.02c.13.34.21.29.33.48.08.4-.02.51-.09.63.13.64.08-.48.3.25.07.54.23.89.48,1.49.04.38-.11-.04-.12.1l.21.29c.02.08-.03.06-.05.06.12.26.16-.02.31.4.16.05.05.64.16,1.08.02.06.04.12.07.19-.06.06-.09-.05-.16-.03.04.17-.02.26-.05.33-.02.05-.15.19-.34.43l-.49.22c.39-.13.07.28-.22.62.15-.03.27-.06.35-.09l-.51.47c-.08.03-.06-.06,0-.18-.03.04-.06.07-.08.11-.24.1-.19-.05-.09-.23.08-.02.17-.04.26-.07.08-.18.15-.36.07-.41-.03.04-.09.1-.16.17.02-.05.03-.08,0-.08-.03,0-.07.07-.14.17l-.23-.05v.08s-.79.44-.79.44c-.42.52-.73,1.07-1.52,1.73.13-.26-.08-.21-.16-.34.32-.03.61-.52,1.06-.81-.24.15-.23.05-.19,0l-.69.68c-.06-.12-.22.04-.45.14.3.09-.48.55-.75.84-.07-.05-.04-.18.35-.44-.53.15-.38.63-.88.8.09-.07.15-.09.16-.16-.18.22-.74.55-.66.4l.09-.07c-.44.29-1.21.85-1.58,1.21-.11.12-.22.19-.24.26,0-.03.03-.27.03-.32-.07.15-.24.29-.47.31-.23,0-.5-.03-.75-.04.2-.09.03-.7.63-.46-.14-.12-.32-.26-.68-.41.09.09.12.39-.03.31-.29-.42-.22-.26-.62-.71.14.13-.19.27-.43.1.06-.01.13-.25.24-.22l-.77-.15c.18.05.15-.19.06-.34.04.09-.54-.34-.72-.42l.23.22c-.68-.47-.9-.09-1.59-.54.12,0,.4-.17.06-.42-.24.02-1.09.14-1.76-.15l-.08-.14-.52-.21c.41,0,1.48.12,2.02.25-.23-.22-.02-.13-.42-.37-.1-.15.28.03.4.1l-.89-.61c-.05.17-.79-.29-.83-.15l1.09.47c-.05.17-.83.05-1.46-.38-.13-.16.28-.18.3-.23-.11,0-.68-.29-.71-.36l.32.09c-.13-.11-.28-.17-.4-.2-.11,0-.29-.09-.22-.28,0-.05.05-.11.1-.16.05-.11.08-.2.03-.22-.21.27-.8.26-.93.05.02-.06.25-.9.36-1.09.17-.28.33.47.47.23-.04-.02-.09-.18-.1-.25.05-.18.14.09.14-.32-.16-.08.07-.82-.13-.2-.02-.4.07-.42.09-.88-.12.14-.34-.44-.36-.83.04.02.1-.06.13-.1.06-.81.13-1.24.13-2,.04-.07.08-.44.16-.28-.03-.11-.09-.21-.1-.44.13-.46.04.52.2.17-.1-.03-.16-.6-.24-.93-.14.11,0,.77.08,1.1-.21,0-.44-.57-.59-1.34-.09-.61.12-.28.08-.38-.07-1.17-.45-.95-.44-1.91.07-.4.26-.06.34-.16.14.49.03.78.08,1.12v-.43c.08.15.15.49.13.68.1-.34-.22-1.97-.36-2.88-.09-.15-.21-.4-.22-.26l.09.27c-.04.28-.29-.48-.24-.12-.17-.35-.4-.71-.53-1.22l.11-.15s.04.36.13.48c-.13-.18-.09-.84-.38-.98l.05.38c-.23-.33-.52-.64-.74-1.01-.02.25.08.08.08.42.03-.16.17.05.27.29.11.25.21.48.22.22-.06.39.14.57.1,1.04.04-.03.04-.18.14.2.02.01.05.05.07.07,0,.01,0,.02,0,.03v-.02s.01.02,0,0c0-.09,0-.17.01-.21.17.15.33.75.44.94.03.23-.08-.08-.1.05l.16.29c-.1.06-.06.64-.23.12l.09.48c-.01.3.03.69.1.93,0,.23.2.57.09.38l.15.77h-.03c.05.77.29,1.59.1,2.47.03.26.07.53.03.97l-.1.08c.04.34-.15,1-.06,1.15-.29.35-.17,1.61-.26,2.19l.12.03c-.02.2-.03.4-.03.61,0,.1,0,.21,0,.33-.01.24.02.4.09.61l.09-.08c.11.27.28.59.62.82.3.22.58.46.92.66-.06.01-.21-.09-.3-.18.57.65,1.59.77,2.13,1.32.18.06.29.15.39.24-.02,0-.03-.02-.04-.02.02.01.04.03.06.04.06.06.13.13.19.19-.05-.06-.1-.12-.16-.17.12.07.32.18.52.27v.15s.04.01.06.02c.16.15.17.04.13-.1.1.04.2.07.28.09.04.26.51.24.61.54.18,0,.96.51,1.17.38,0,.03.04.07-.06.01.19.15.38.29.6.36v.18s.56.1.56.1c.22.25.31.36-.03.3.19.06.31.11.41.15.11.05.22.1.31.12.18.04.39.1.78-.09l-.02.11c.13-.04.28-.13.4-.24.13-.13.23-.23.33-.24.53-.15,2.1-1.48,3.29-2.11-.38-.09.58-.26.49-.47.1.01.28-.07.14.11.51-.45.89-.51,1.16-.94.1.01-.06.17.02.16.04-.04.14-.17.22-.18.08,0-.05.11-.12.19.56-.41.49-.63.42-.82.34-.13.48-.24.61-.5.14-.02.34-.08,0,.19.22-.15,1.23-.75,1.22-.97.12-.03.3-.35.3-.44.14-.35.1-.57.06-.77-.04-.14-.07-.28-.14-.53v.15c-.23-.16-.14-.42-.27-.83h.02c-.11-.99-.17-.39-.25-1.38l-.1.08c-.27-.02-.06-.88-.3-1.4l-.02.22c-.16-.28.13-.92.08-1.23,0-.07.06.09.1.18-.05-.83-.18-.06-.36-.64.05-.13.24.09.16-.31.02-.21-.56-1.08-.54-1.66-.03.13-.07.27-.18,0-.06-.21-.08-.5-.11-.79-.02-.15-.03-.26-.08-.43-.06-.19-.16-.35-.29-.43-.03-.07-.04-.11-.03-.12-.16-.18-.57-.38-.87-.38-.25-.02-.49-.04-.6,0-.2-.46-2.05-.25-1.94-.64l-.97-.25.04-.03c-.61-.21-.85-.19-1.09-.17-.13-.07-.02-.07,0-.09-.86-.37-.95-.39-1.75-.49l-.03-.15c-.23-.01-1.17-.69-2.04-.98.01,0,.04-.02.11,0-1-.33-1.92-1.5-2.47-1.35-.21-.1-.4-.21-.61-.31.68.56-.22.08.02.35-.3-.19-.61-.68-.27-.42l.04.06c.26-.08-.78-.77-.63-.89-.41-.43-.82-.82-1.07-1.37-.12-.19-.37-.39-.65-.43-.28-.05-.54.03-.75.16-.21.13-.38.32-.47.58-.1.26-.07.59.06.82v.02s.03.03.03.03c.29.43.58.84.86,1.25l.04-.26.33.47c.05.15,0,.25-.23-.09.04.24.47.51.51.49.41.69-.36-.13-.22.07l.21.26-.03-.07c.22.18.3.15.58.55.15.27,0,.2.07.3-.01,0,0,.04.11.16l.41.6-.05-.32c.25.22.39.56.33.19.08.54,1.51,2.24,1.62,2.53.35.3.61.66.92,1.12-.06-.13.03-.29.29.11-.37.06.39.79.42,1.24-.07-.37.82,1.07.69.5.21.34-.09.09.02.38.25.26.47.57.7.91.09.13.25.43.52.61.26.18.59.27.92.23.23-.02.43,0,.64.05.03-.04-.11-.14.11-.16.14.13.25.26.33.41.13.08.31-.1.41.25,0-.06,0-.15.09-.06.47.78.32,1.99-.52,2.44-.41.22-.95.3-1.39.12-.44-.17-.78-.53-.82-.97.03.23-.07.12-.12-.06.02.12-.1.03-.15.07-.06-.28,0-.53.09-.78-.07-.08-.04-.3.05-.48.14-.27.15-.66.06-.71.02.14.02.28,0,.41-.04-.29-.17-.09-.34.05-.18.12-.37.32-.47.26.03.28-.1.57-.13.98-.01.41.11.89.5,1.15.09.18-.17-.08-.15.03.23.12.4.33.82.61h-.06c.64.33,1.16.37,1.69.33.51-.07,1.14-.21,1.7-.89-.06.01-.11.03-.17.03.21-.28.3-.33.38-.47-.02-.23-.07.02-.23.22-.13.22-.32.39-.27.19.24-.08.6-.65.64-1.24.07-.58-.11-1.15-.06-1.35-.26-.51-.03.19-.31-.28,0-.06-.01-.11-.02-.16l-.16-.05c-.21-.28-.32-.45-.29-.51.07.06.21.15.28.22-.27-.47-1.19-.71-1.35-.73.18.05.35.13.51.21-.42-.16-.93-.23-1.39-.17-.1.02-.21,0-.29-.07-.05-.04-.06-.05-.12-.13l-.21-.28c-.28-.37-.56-.72-.84-1.02v.1c-.6-.66-.36-.62-.97-1.38l.03.02c-.16-.13-.34-.32-.49-.54.2.16-.17-.45.08-.23-.66-.72-.35-.34-.89-.73v-.17c-.21-.13-.25-.12-.56-.5.3.28-.07-.34.28-.03-.44-.95-1.06-1.12-1.09-1.67-.48-.23.4.8.21.62.06.23-.38-.2-.55-.48-.19-.27-.06-.64-.55-1.31.05.07.07.06.11.13-.13-.29-.43-.44-.56-.81-.25-.08-.28-.4-.48-.34l.48.59c-.29-.32-.72-.51-1.04-1.15.06.02.23.16.34.26-.07-.2-.26-.3-.34-.51.2-.07.57.72.97,1.01-.06-.23-.63-.62-.32-.56-.42-.11-.45-.68-.94-1.01l.12-.04c-.07-.06-.22-.18-.31-.31l.3.15c-.15-.12-.25-.27-.33-.42l.03.07c-.1.06-.12.03-.06.04.05,0,.15.08.13.07,0-.02-.14-.08-.14-.07-.02,0-.01,0-.01,0,0,0,0-.01-.06,0-.05-.02,0-.11.05-.12.05-.02.1,0,.13.05.03.09,0-.05.02-.04,0,0,0,.02-.1.12-.09.06-.02.02.07.23-.07-.12-.11-.22-.08-.22l.06-.06s-.02,0,0,0c0,.01.02.09.09.26.09.2.16.31.18.39.59.68,0-.18.3.07.09.32.33.29.62.53l-.08.09c.66.75.35,0,.95.66-.13-.04-.26-.07-.39-.12.12.1.25.18.38.27l-.16.04c.45.25.56.36.94.68-.04-.14.18-.14.54.1.21.22-.2,0,.32.32-.16,0-.34-.02-.5-.25-.04.02-.16-.01-.2,0,.22.25.66.46.85.57-.07-.05-.15-.11-.19-.15.28.11.56.21.85.31.1.11-.01.09-.13.06.16.08.3.09.53.2-.11.05-.14.15-.49.01l.8.3c.03.06.34.3.22.28.4.26,1.12.32,1.66.62.04,0,.1,0,.23.04.53.24.97.53,1.67.62l.32.29c.52.12-.43-.37.44-.16.62.13.18.21.38.32.33,0,.9-.02,1.42.26-.19-.02-.33-.08-.51-.11ZM20.28,10.88c-.06-.12-.19-.34-.15-.45.17.11.13.23.15.45ZM19.79,19.04c.05-.09.18-.16.34-.21-.09.08-.2.15-.34.21ZM4.83,8.18h0c0,.29,0,.19,0,0ZM4.78,7.61c-.03-.05-.04-.05-.06-.02.04.03.07.16.08.3.03-.05.03-.12-.03-.28ZM6.66,4.68l-.04-.11c.18.19.11.15.04.11Z"/>
    <path class="cls-1" d="M20.6,18.25s.06,0,.08.02c.03-.05.02-.06-.08-.02Z"/>
    <path class="cls-1" d="M12.52,6.33h-.02s-.02,0-.03,0h.05Z"/>
    <path class="cls-1" d="M6.02,16.56c-.03.12-.05.19-.08.23.03,0,.06-.04.08-.23Z"/>
    <path class="cls-1" d="M3.75,4.85c.05.1.12.2.16.31-.06-.16-.07-.22-.08-.31-.02.02-.03.1-.08,0Z"/>
    <path class="cls-1" d="M3.48,1.81s.11-.02.16-.04v-.06c-.29.03-.39.19-.16.1Z"/>
    <path class="cls-1" d="M3.98,4.39c.08-.07-.05-.25-.2-.45l.02.04c-.16.02.02.2.17.41Z"/>
    <path class="cls-1" d="M3.75,3.89c-.05-.06-.09-.12-.13-.19-.06,0,.05.08.13.19Z"/>
    <path class="cls-1" d="M4.56,6.93c0-.12-.14-.04-.12-.12-.16-.1.33.74.12.12Z"/>
    <polygon class="cls-1" points="4.18 4.05 4.12 4.19 4.27 4.28 4.18 4.05"/>
    <path class="cls-1" d="M4.84,6l-.09-.41s-.05-.03-.07-.09c.07.25.14.52.17.5Z"/>
    <path class="cls-1" d="M4.68,5.5c-.04-.13-.09-.24-.13-.31.03.06.08.2.13.31Z"/>
    <path class="cls-1" d="M4.46,4.56l.03.12c.04.09.07.18.1.28-.04-.14-.08-.27-.13-.4Z"/>
    <path class="cls-1" d="M5.54,10.41l.06.45s.06-.08.04-.25c-.04-.11-.06-.27-.1-.2Z"/>
    <path class="cls-1" d="M5.76,9c-.01.13-.04.14-.07.21h.16s-.08-.21-.08-.21Z"/>
    <path class="cls-1" d="M5.92,10.33s.16.66.12.08c-.04-.04-.11-.5-.12-.08Z"/>
    <polygon class="cls-1" points="5.54 17.22 5.55 17.11 5.29 17.1 5.54 17.22"/>
    <path class="cls-1" d="M10,20.44c-.43-.34-.19.07-.57-.26-.14-.02.31.26.17.24.31.12.44.24.4.02Z"/>
    <path class="cls-1" d="M9.6,20.42s-.1-.03-.16-.05c.09.04.13.05.16.05Z"/>
    <path class="cls-1" d="M12.38,13.76c.09-.16.16-.34.19-.54-.04.13-.09.24-.15.34,0,.06-.02.13-.04.19Z"/>
    <path class="cls-1" d="M12.29,12.74c.04-.05.08-.11.11-.18-.09-.09-.19-.17-.29-.22.08.09.19.3.18.4Z"/>
    <path class="cls-1" d="M20.2,11.9l.04.02c.03-.06.01-.14-.02-.3l-.02.29Z"/>
    <polygon class="cls-1" points="19.11 8.33 19.19 8.35 19.07 8.18 19.11 8.33"/>
    <path class="cls-1" d="M15.17,7.54c.16.05.35.08.51.13-.35-.08-.5-.32-.51-.13Z"/>
  </g>
</svg>